M48
; DRILL file {KiCad (6.0.5)} date Wed Jun 29 09:08:10 2022
; FORMAT={-:-/ absolute / inch / decimal}
; #@! TF.CreationDate,2022-06-29T09:08:10+08:00
; #@! TF.GenerationSoftware,Kicad,Pcbnew,(6.0.5)
; #@! TF.FileFunction,Plated,1,2,PTH
FMAT,2
INCH
; #@! TA.AperFunction,Plated,PTH,ViaDrill
T1C0.0118
; #@! TA.AperFunction,Plated,PTH,ComponentDrill
T2C0.0394
%
G90
G05
T1
X3.389Y-2.699
X3.389Y-3.6045
X3.389Y-4.51
X3.389Y-5.4155
X3.412Y-2.71
X3.412Y-3.6155
X3.412Y-4.521
X3.412Y-5.4265
X3.42Y-2.03
X3.42Y-2.06
X3.42Y-2.09
X3.42Y-2.9355
X3.42Y-2.9655
X3.42Y-2.9955
X3.42Y-3.841
X3.42Y-3.871
X3.42Y-3.901
X3.42Y-4.7465
X3.42Y-4.7765
X3.42Y-4.8065
X3.435Y-2.721
X3.435Y-3.6265
X3.435Y-4.532
X3.435Y-5.4375
X3.45Y-2.03
X3.45Y-2.06
X3.45Y-2.09
X3.45Y-2.9355
X3.45Y-2.9655
X3.45Y-2.9955
X3.45Y-3.841
X3.45Y-3.871
X3.45Y-3.901
X3.45Y-4.7465
X3.45Y-4.7765
X3.45Y-4.8065
X3.466Y-2.721
X3.466Y-3.6265
X3.466Y-4.532
X3.466Y-5.4375
X3.48Y-2.03
X3.48Y-2.06
X3.48Y-2.09
X3.48Y-2.9355
X3.48Y-2.9655
X3.48Y-2.9955
X3.48Y-3.841
X3.48Y-3.871
X3.48Y-3.901
X3.48Y-4.7465
X3.48Y-4.7765
X3.48Y-4.8065
X3.491Y-2.611
X3.491Y-3.5165
X3.491Y-4.422
X3.491Y-5.3275
X3.508Y-2.629
X3.508Y-3.5345
X3.508Y-4.44
X3.508Y-5.3455
X3.51Y-2.03
X3.51Y-2.06
X3.51Y-2.09
X3.51Y-2.12
X3.51Y-2.9355
X3.51Y-2.9655
X3.51Y-2.9955
X3.51Y-3.0255
X3.51Y-3.841
X3.51Y-3.871
X3.51Y-3.901
X3.51Y-3.931
X3.51Y-4.7465
X3.51Y-4.7765
X3.51Y-4.8065
X3.51Y-4.8365
X3.527Y-2.589
X3.527Y-3.4945
X3.527Y-4.4
X3.527Y-5.3055
X3.528Y-2.614
X3.528Y-3.5195
X3.528Y-4.425
X3.528Y-5.3305
X3.531Y-2.381
X3.531Y-3.2865
X3.531Y-4.192
X3.531Y-5.0975
X3.535Y-2.418
X3.535Y-3.3235
X3.535Y-4.229
X3.535Y-5.1345
X3.546Y-2.633
X3.546Y-3.5385
X3.546Y-4.444
X3.546Y-5.3495
X3.55Y-2.398
X3.55Y-3.3035
X3.55Y-4.209
X3.55Y-5.1145
X3.558Y-2.429
X3.558Y-2.609
X3.558Y-3.3345
X3.558Y-3.5145
X3.558Y-4.24
X3.558Y-4.42
X3.558Y-5.1455
X3.558Y-5.3255
X3.574Y-2.775
X3.574Y-3.6805
X3.574Y-4.586
X3.574Y-5.4915
X3.578Y-2.664
X3.578Y-2.689
X3.578Y-3.5695
X3.578Y-3.5945
X3.578Y-4.475
X3.578Y-4.5
X3.578Y-5.3805
X3.578Y-5.4055
X3.58Y-2.354
X3.58Y-3.2595
X3.58Y-4.165
X3.58Y-5.0705
X3.585Y-2.391
X3.585Y-3.2965
X3.585Y-4.202
X3.585Y-5.1075
X3.5965Y-2.6474
X3.5965Y-3.5529
X3.5965Y-4.4585
X3.5965Y-5.364
X3.6Y-2.369
X3.6Y-3.2745
X3.6Y-4.18
X3.6Y-5.0855
X3.601Y-2.341
X3.601Y-3.2465
X3.601Y-4.152
X3.601Y-5.0575
X3.606Y-2.685
X3.606Y-3.5905
X3.606Y-4.496
X3.606Y-5.4015
X3.61Y-2.47
X3.61Y-2.5
X3.61Y-2.53
X3.61Y-2.56
X3.61Y-3.3755
X3.61Y-3.4055
X3.61Y-3.4355
X3.61Y-3.4655
X3.61Y-4.281
X3.61Y-4.311
X3.61Y-4.341
X3.61Y-4.371
X3.61Y-5.1865
X3.61Y-5.2165
X3.61Y-5.2465
X3.61Y-5.2765
X3.615Y-2.115
X3.615Y-3.0205
X3.615Y-3.926
X3.615Y-4.8315
X3.6304Y-2.653
X3.6304Y-3.5585
X3.6304Y-4.464
X3.6304Y-5.3695
X3.64Y-2.47
X3.64Y-2.5
X3.64Y-2.53
X3.64Y-2.56
X3.64Y-3.3755
X3.64Y-3.4055
X3.64Y-3.4355
X3.64Y-3.4655
X3.64Y-4.281
X3.64Y-4.311
X3.64Y-4.341
X3.64Y-4.371
X3.64Y-5.1865
X3.64Y-5.2165
X3.64Y-5.2465
X3.64Y-5.2765
X3.67Y-2.47
X3.67Y-2.5
X3.67Y-2.53
X3.67Y-2.56
X3.67Y-3.3755
X3.67Y-3.4055
X3.67Y-3.4355
X3.67Y-3.4655
X3.67Y-4.281
X3.67Y-4.311
X3.67Y-4.341
X3.67Y-4.371
X3.67Y-5.1865
X3.67Y-5.2165
X3.67Y-5.2465
X3.67Y-5.2765
X3.679Y-2.141
X3.679Y-3.0465
X3.679Y-3.952
X3.679Y-4.8575
X3.685Y-2.19
X3.685Y-2.215
X3.685Y-3.0955
X3.685Y-3.1205
X3.685Y-4.001
X3.685Y-4.026
X3.685Y-4.9065
X3.685Y-4.9315
X3.7Y-2.47
X3.7Y-2.5
X3.7Y-2.53
X3.7Y-2.56
X3.7Y-3.3755
X3.7Y-3.4055
X3.7Y-3.4355
X3.7Y-3.4655
X3.7Y-4.281
X3.7Y-4.311
X3.7Y-4.341
X3.7Y-4.371
X3.7Y-5.1865
X3.7Y-5.2165
X3.7Y-5.2465
X3.7Y-5.2765
X3.701Y-2.766
X3.701Y-3.6715
X3.701Y-4.577
X3.701Y-5.4825
X3.705Y-2.175
X3.705Y-3.0805
X3.705Y-3.986
X3.705Y-4.8915
X3.7125Y-2.3725
X3.7125Y-3.278
X3.7125Y-4.1835
X3.7125Y-5.089
X3.722Y-2.216
X3.722Y-2.258
X3.722Y-3.1215
X3.722Y-3.1635
X3.722Y-4.027
X3.722Y-4.069
X3.722Y-4.9325
X3.722Y-4.9745
X3.723Y-2.74
X3.723Y-3.6455
X3.723Y-4.551
X3.723Y-5.4565
X3.73Y-2.165
X3.73Y-2.775
X3.73Y-3.0705
X3.73Y-3.6805
X3.73Y-3.976
X3.73Y-4.586
X3.73Y-4.8815
X3.73Y-5.4915
X3.743Y-2.406
X3.743Y-3.3115
X3.743Y-4.217
X3.743Y-5.1225
X3.746Y-2.245
X3.746Y-3.1505
X3.746Y-4.056
X3.746Y-4.9615
X3.75Y-2.627
X3.75Y-3.5325
X3.75Y-4.438
X3.75Y-5.3435
X3.752Y-2.429
X3.752Y-3.3345
X3.752Y-4.24
X3.752Y-5.1455
X3.757Y-2.771
X3.757Y-3.6765
X3.757Y-4.582
X3.757Y-5.4875
X3.7834Y-2.3726
X3.7834Y-3.2781
X3.7834Y-4.1836
X3.7834Y-5.0892
X3.785Y-2.771
X3.785Y-3.6765
X3.785Y-4.582
X3.785Y-5.4875
X3.788Y-2.482
X3.788Y-3.3875
X3.788Y-4.293
X3.788Y-5.1985
X3.796Y-2.507
X3.796Y-3.4125
X3.796Y-4.318
X3.796Y-5.2235
X4.0425Y-2.699
X4.0425Y-3.6045
X4.0425Y-4.51
X4.0425Y-5.4155
X4.0655Y-2.71
X4.0655Y-3.6155
X4.0655Y-4.521
X4.0655Y-5.4265
X4.0735Y-2.03
X4.0735Y-2.06
X4.0735Y-2.09
X4.0735Y-2.9355
X4.0735Y-2.9655
X4.0735Y-2.9955
X4.0735Y-3.841
X4.0735Y-3.871
X4.0735Y-3.901
X4.0735Y-4.7465
X4.0735Y-4.7765
X4.0735Y-4.8065
X4.0885Y-2.721
X4.0885Y-3.6265
X4.0885Y-4.532
X4.0885Y-5.4375
X4.1035Y-2.03
X4.1035Y-2.06
X4.1035Y-2.09
X4.1035Y-2.9355
X4.1035Y-2.9655
X4.1035Y-2.9955
X4.1035Y-3.841
X4.1035Y-3.871
X4.1035Y-3.901
X4.1035Y-4.7465
X4.1035Y-4.7765
X4.1035Y-4.8065
X4.1195Y-2.721
X4.1195Y-3.6265
X4.1195Y-4.532
X4.1195Y-5.4375
X4.1335Y-2.03
X4.1335Y-2.06
X4.1335Y-2.09
X4.1335Y-2.9355
X4.1335Y-2.9655
X4.1335Y-2.9955
X4.1335Y-3.841
X4.1335Y-3.871
X4.1335Y-3.901
X4.1335Y-4.7465
X4.1335Y-4.7765
X4.1335Y-4.8065
X4.1445Y-2.611
X4.1445Y-3.5165
X4.1445Y-4.422
X4.1445Y-5.3275
X4.1615Y-2.629
X4.1615Y-3.5345
X4.1615Y-4.44
X4.1615Y-5.3455
X4.1635Y-2.03
X4.1635Y-2.06
X4.1635Y-2.09
X4.1635Y-2.12
X4.1635Y-2.9355
X4.1635Y-2.9655
X4.1635Y-2.9955
X4.1635Y-3.0255
X4.1635Y-3.841
X4.1635Y-3.871
X4.1635Y-3.901
X4.1635Y-3.931
X4.1635Y-4.7465
X4.1635Y-4.7765
X4.1635Y-4.8065
X4.1635Y-4.8365
X4.1805Y-2.589
X4.1805Y-3.4945
X4.1805Y-4.4
X4.1805Y-5.3055
X4.1815Y-2.614
X4.1815Y-3.5195
X4.1815Y-4.425
X4.1815Y-5.3305
X4.1845Y-2.381
X4.1845Y-3.2865
X4.1845Y-4.192
X4.1845Y-5.0975
X4.1885Y-2.418
X4.1885Y-3.3235
X4.1885Y-4.229
X4.1885Y-5.1345
X4.1995Y-2.633
X4.1995Y-3.5385
X4.1995Y-4.444
X4.1995Y-5.3495
X4.2035Y-2.398
X4.2035Y-3.3035
X4.2035Y-4.209
X4.2035Y-5.1145
X4.2115Y-2.429
X4.2115Y-2.609
X4.2115Y-3.3345
X4.2115Y-3.5145
X4.2115Y-4.24
X4.2115Y-4.42
X4.2115Y-5.1455
X4.2115Y-5.3255
X4.2275Y-2.775
X4.2275Y-3.6805
X4.2275Y-4.586
X4.2275Y-5.4915
X4.2315Y-2.664
X4.2315Y-2.689
X4.2315Y-3.5695
X4.2315Y-3.5945
X4.2315Y-4.475
X4.2315Y-4.5
X4.2315Y-5.3805
X4.2315Y-5.4055
X4.2335Y-2.354
X4.2335Y-3.2595
X4.2335Y-4.165
X4.2335Y-5.0705
X4.2385Y-2.391
X4.2385Y-3.2965
X4.2385Y-4.202
X4.2385Y-5.1075
X4.2501Y-2.6474
X4.2501Y-3.5529
X4.2501Y-4.4585
X4.2501Y-5.364
X4.2535Y-2.369
X4.2535Y-3.2745
X4.2535Y-4.18
X4.2535Y-5.0855
X4.2545Y-2.341
X4.2545Y-3.2465
X4.2545Y-4.152
X4.2545Y-5.0575
X4.2595Y-2.685
X4.2595Y-3.5905
X4.2595Y-4.496
X4.2595Y-5.4015
X4.2635Y-2.47
X4.2635Y-2.5
X4.2635Y-2.53
X4.2635Y-2.56
X4.2635Y-3.3755
X4.2635Y-3.4055
X4.2635Y-3.4355
X4.2635Y-3.4655
X4.2635Y-4.281
X4.2635Y-4.311
X4.2635Y-4.341
X4.2635Y-4.371
X4.2635Y-5.1865
X4.2635Y-5.2165
X4.2635Y-5.2465
X4.2635Y-5.2765
X4.2685Y-2.115
X4.2685Y-3.0205
X4.2685Y-3.926
X4.2685Y-4.8315
X4.284Y-2.653
X4.284Y-3.5585
X4.284Y-4.464
X4.284Y-5.3695
X4.2935Y-2.47
X4.2935Y-2.5
X4.2935Y-2.53
X4.2935Y-2.56
X4.2935Y-3.3755
X4.2935Y-3.4055
X4.2935Y-3.4355
X4.2935Y-3.4655
X4.2935Y-4.281
X4.2935Y-4.311
X4.2935Y-4.341
X4.2935Y-4.371
X4.2935Y-5.1865
X4.2935Y-5.2165
X4.2935Y-5.2465
X4.2935Y-5.2765
X4.3235Y-2.47
X4.3235Y-2.5
X4.3235Y-2.53
X4.3235Y-2.56
X4.3235Y-3.3755
X4.3235Y-3.4055
X4.3235Y-3.4355
X4.3235Y-3.4655
X4.3235Y-4.281
X4.3235Y-4.311
X4.3235Y-4.341
X4.3235Y-4.371
X4.3235Y-5.1865
X4.3235Y-5.2165
X4.3235Y-5.2465
X4.3235Y-5.2765
X4.3325Y-2.141
X4.3325Y-3.0465
X4.3325Y-3.952
X4.3325Y-4.8575
X4.3385Y-2.19
X4.3385Y-2.215
X4.3385Y-3.0955
X4.3385Y-3.1205
X4.3385Y-4.001
X4.3385Y-4.026
X4.3385Y-4.9065
X4.3385Y-4.9315
X4.3535Y-2.47
X4.3535Y-2.5
X4.3535Y-2.53
X4.3535Y-2.56
X4.3535Y-3.3755
X4.3535Y-3.4055
X4.3535Y-3.4355
X4.3535Y-3.4655
X4.3535Y-4.281
X4.3535Y-4.311
X4.3535Y-4.341
X4.3535Y-4.371
X4.3535Y-5.1865
X4.3535Y-5.2165
X4.3535Y-5.2465
X4.3535Y-5.2765
X4.3545Y-2.766
X4.3545Y-3.6715
X4.3545Y-4.577
X4.3545Y-5.4825
X4.3585Y-2.175
X4.3585Y-3.0805
X4.3585Y-3.986
X4.3585Y-4.8915
X4.366Y-2.3725
X4.366Y-3.278
X4.366Y-4.1835
X4.366Y-5.089
X4.3755Y-2.216
X4.3755Y-2.258
X4.3755Y-3.1215
X4.3755Y-3.1635
X4.3755Y-4.027
X4.3755Y-4.069
X4.3755Y-4.9325
X4.3755Y-4.9745
X4.3765Y-2.74
X4.3765Y-3.6455
X4.3765Y-4.551
X4.3765Y-5.4565
X4.3835Y-2.165
X4.3835Y-2.775
X4.3835Y-3.0705
X4.3835Y-3.6805
X4.3835Y-3.976
X4.3835Y-4.586
X4.3835Y-4.8815
X4.3835Y-5.4915
X4.3965Y-2.406
X4.3965Y-3.3115
X4.3965Y-4.217
X4.3965Y-5.1225
X4.3995Y-2.245
X4.3995Y-3.1505
X4.3995Y-4.056
X4.3995Y-4.9615
X4.4035Y-2.627
X4.4035Y-3.5325
X4.4035Y-4.438
X4.4035Y-5.3435
X4.4055Y-2.429
X4.4055Y-3.3345
X4.4055Y-4.24
X4.4055Y-5.1455
X4.4105Y-2.771
X4.4105Y-3.6765
X4.4105Y-4.582
X4.4105Y-5.4875
X4.4369Y-2.3726
X4.4369Y-3.2781
X4.4369Y-4.1836
X4.4369Y-5.0892
X4.4385Y-2.771
X4.4385Y-3.6765
X4.4385Y-4.582
X4.4385Y-5.4875
X4.4415Y-2.482
X4.4415Y-3.3875
X4.4415Y-4.293
X4.4415Y-5.1985
X4.4495Y-2.507
X4.4495Y-3.4125
X4.4495Y-4.318
X4.4495Y-5.2235
X4.6961Y-2.699
X4.6961Y-3.6045
X4.6961Y-4.51
X4.6961Y-5.4155
X4.7191Y-2.71
X4.7191Y-3.6155
X4.7191Y-4.521
X4.7191Y-5.4265
X4.7271Y-2.03
X4.7271Y-2.06
X4.7271Y-2.09
X4.7271Y-2.9355
X4.7271Y-2.9655
X4.7271Y-2.9955
X4.7271Y-3.841
X4.7271Y-3.871
X4.7271Y-3.901
X4.7271Y-4.7465
X4.7271Y-4.7765
X4.7271Y-4.8065
X4.7421Y-2.721
X4.7421Y-3.6265
X4.7421Y-4.532
X4.7421Y-5.4375
X4.7571Y-2.03
X4.7571Y-2.06
X4.7571Y-2.09
X4.7571Y-2.9355
X4.7571Y-2.9655
X4.7571Y-2.9955
X4.7571Y-3.841
X4.7571Y-3.871
X4.7571Y-3.901
X4.7571Y-4.7465
X4.7571Y-4.7765
X4.7571Y-4.8065
X4.7731Y-2.721
X4.7731Y-3.6265
X4.7731Y-4.532
X4.7731Y-5.4375
X4.7871Y-2.03
X4.7871Y-2.06
X4.7871Y-2.09
X4.7871Y-2.9355
X4.7871Y-2.9655
X4.7871Y-2.9955
X4.7871Y-3.841
X4.7871Y-3.871
X4.7871Y-3.901
X4.7871Y-4.7465
X4.7871Y-4.7765
X4.7871Y-4.8065
X4.7981Y-2.611
X4.7981Y-3.5165
X4.7981Y-4.422
X4.7981Y-5.3275
X4.8151Y-2.629
X4.8151Y-3.5345
X4.8151Y-4.44
X4.8151Y-5.3455
X4.8171Y-2.03
X4.8171Y-2.06
X4.8171Y-2.09
X4.8171Y-2.12
X4.8171Y-2.9355
X4.8171Y-2.9655
X4.8171Y-2.9955
X4.8171Y-3.0255
X4.8171Y-3.841
X4.8171Y-3.871
X4.8171Y-3.901
X4.8171Y-3.931
X4.8171Y-4.7465
X4.8171Y-4.7765
X4.8171Y-4.8065
X4.8171Y-4.8365
X4.8341Y-2.589
X4.8341Y-3.4945
X4.8341Y-4.4
X4.8341Y-5.3055
X4.8351Y-2.614
X4.8351Y-3.5195
X4.8351Y-4.425
X4.8351Y-5.3305
X4.8381Y-2.381
X4.8381Y-3.2865
X4.8381Y-4.192
X4.8381Y-5.0975
X4.8421Y-2.418
X4.8421Y-3.3235
X4.8421Y-4.229
X4.8421Y-5.1345
X4.8531Y-2.633
X4.8531Y-3.5385
X4.8531Y-4.444
X4.8531Y-5.3495
X4.8571Y-2.398
X4.8571Y-3.3035
X4.8571Y-4.209
X4.8571Y-5.1145
X4.8651Y-2.429
X4.8651Y-2.609
X4.8651Y-3.3345
X4.8651Y-3.5145
X4.8651Y-4.24
X4.8651Y-4.42
X4.8651Y-5.1455
X4.8651Y-5.3255
X4.8811Y-2.775
X4.8811Y-3.6805
X4.8811Y-4.586
X4.8811Y-5.4915
X4.8851Y-2.664
X4.8851Y-2.689
X4.8851Y-3.5695
X4.8851Y-3.5945
X4.8851Y-4.475
X4.8851Y-4.5
X4.8851Y-5.3805
X4.8851Y-5.4055
X4.8871Y-2.354
X4.8871Y-3.2595
X4.8871Y-4.165
X4.8871Y-5.0705
X4.8921Y-2.391
X4.8921Y-3.2965
X4.8921Y-4.202
X4.8921Y-5.1075
X4.9036Y-2.6474
X4.9036Y-3.5529
X4.9036Y-4.4585
X4.9036Y-5.364
X4.9071Y-2.369
X4.9071Y-3.2745
X4.9071Y-4.18
X4.9071Y-5.0855
X4.9081Y-2.341
X4.9081Y-3.2465
X4.9081Y-4.152
X4.9081Y-5.0575
X4.9131Y-2.685
X4.9131Y-3.5905
X4.9131Y-4.496
X4.9131Y-5.4015
X4.9171Y-2.47
X4.9171Y-2.5
X4.9171Y-2.53
X4.9171Y-2.56
X4.9171Y-3.3755
X4.9171Y-3.4055
X4.9171Y-3.4355
X4.9171Y-3.4655
X4.9171Y-4.281
X4.9171Y-4.311
X4.9171Y-4.341
X4.9171Y-4.371
X4.9171Y-5.1865
X4.9171Y-5.2165
X4.9171Y-5.2465
X4.9171Y-5.2765
X4.9221Y-2.115
X4.9221Y-3.0205
X4.9221Y-3.926
X4.9221Y-4.8315
X4.9375Y-2.653
X4.9375Y-3.5585
X4.9375Y-4.464
X4.9375Y-5.3695
X4.9471Y-2.47
X4.9471Y-2.5
X4.9471Y-2.53
X4.9471Y-2.56
X4.9471Y-3.3755
X4.9471Y-3.4055
X4.9471Y-3.4355
X4.9471Y-3.4655
X4.9471Y-4.281
X4.9471Y-4.311
X4.9471Y-4.341
X4.9471Y-4.371
X4.9471Y-5.1865
X4.9471Y-5.2165
X4.9471Y-5.2465
X4.9471Y-5.2765
X4.9771Y-2.47
X4.9771Y-2.5
X4.9771Y-2.53
X4.9771Y-2.56
X4.9771Y-3.3755
X4.9771Y-3.4055
X4.9771Y-3.4355
X4.9771Y-3.4655
X4.9771Y-4.281
X4.9771Y-4.311
X4.9771Y-4.341
X4.9771Y-4.371
X4.9771Y-5.1865
X4.9771Y-5.2165
X4.9771Y-5.2465
X4.9771Y-5.2765
X4.9861Y-2.141
X4.9861Y-3.0465
X4.9861Y-3.952
X4.9861Y-4.8575
X4.9921Y-2.19
X4.9921Y-2.215
X4.9921Y-3.0955
X4.9921Y-3.1205
X4.9921Y-4.001
X4.9921Y-4.026
X4.9921Y-4.9065
X4.9921Y-4.9315
X5.0071Y-2.47
X5.0071Y-2.5
X5.0071Y-2.53
X5.0071Y-2.56
X5.0071Y-3.3755
X5.0071Y-3.4055
X5.0071Y-3.4355
X5.0071Y-3.4655
X5.0071Y-4.281
X5.0071Y-4.311
X5.0071Y-4.341
X5.0071Y-4.371
X5.0071Y-5.1865
X5.0071Y-5.2165
X5.0071Y-5.2465
X5.0071Y-5.2765
X5.0081Y-2.766
X5.0081Y-3.6715
X5.0081Y-4.577
X5.0081Y-5.4825
X5.0121Y-2.175
X5.0121Y-3.0805
X5.0121Y-3.986
X5.0121Y-4.8915
X5.0196Y-2.3725
X5.0196Y-3.278
X5.0196Y-4.1835
X5.0196Y-5.089
X5.0291Y-2.216
X5.0291Y-2.258
X5.0291Y-3.1215
X5.0291Y-3.1635
X5.0291Y-4.027
X5.0291Y-4.069
X5.0291Y-4.9325
X5.0291Y-4.9745
X5.0301Y-2.74
X5.0301Y-3.6455
X5.0301Y-4.551
X5.0301Y-5.4565
X5.0371Y-2.165
X5.0371Y-2.775
X5.0371Y-3.0705
X5.0371Y-3.6805
X5.0371Y-3.976
X5.0371Y-4.586
X5.0371Y-4.8815
X5.0371Y-5.4915
X5.0501Y-2.406
X5.0501Y-3.3115
X5.0501Y-4.217
X5.0501Y-5.1225
X5.0531Y-2.245
X5.0531Y-3.1505
X5.0531Y-4.056
X5.0531Y-4.9615
X5.0571Y-2.627
X5.0571Y-3.5325
X5.0571Y-4.438
X5.0571Y-5.3435
X5.0591Y-2.429
X5.0591Y-3.3345
X5.0591Y-4.24
X5.0591Y-5.1455
X5.0641Y-2.771
X5.0641Y-3.6765
X5.0641Y-4.582
X5.0641Y-5.4875
X5.0905Y-2.3726
X5.0905Y-3.2781
X5.0905Y-4.1836
X5.0905Y-5.0892
X5.0921Y-2.771
X5.0921Y-3.6765
X5.0921Y-4.582
X5.0921Y-5.4875
X5.0951Y-2.482
X5.0951Y-3.3875
X5.0951Y-4.293
X5.0951Y-5.1985
X5.1031Y-2.507
X5.1031Y-3.4125
X5.1031Y-4.318
X5.1031Y-5.2235
X5.3496Y-2.699
X5.3496Y-3.6045
X5.3496Y-4.51
X5.3496Y-5.4155
X5.3726Y-2.71
X5.3726Y-3.6155
X5.3726Y-4.521
X5.3726Y-5.4265
X5.3806Y-2.03
X5.3806Y-2.06
X5.3806Y-2.09
X5.3806Y-2.9355
X5.3806Y-2.9655
X5.3806Y-2.9955
X5.3806Y-3.841
X5.3806Y-3.871
X5.3806Y-3.901
X5.3806Y-4.7465
X5.3806Y-4.7765
X5.3806Y-4.8065
X5.3956Y-2.721
X5.3956Y-3.6265
X5.3956Y-4.532
X5.3956Y-5.4375
X5.4106Y-2.03
X5.4106Y-2.06
X5.4106Y-2.09
X5.4106Y-2.9355
X5.4106Y-2.9655
X5.4106Y-2.9955
X5.4106Y-3.841
X5.4106Y-3.871
X5.4106Y-3.901
X5.4106Y-4.7465
X5.4106Y-4.7765
X5.4106Y-4.8065
X5.4266Y-2.721
X5.4266Y-3.6265
X5.4266Y-4.532
X5.4266Y-5.4375
X5.4406Y-2.03
X5.4406Y-2.06
X5.4406Y-2.09
X5.4406Y-2.9355
X5.4406Y-2.9655
X5.4406Y-2.9955
X5.4406Y-3.841
X5.4406Y-3.871
X5.4406Y-3.901
X5.4406Y-4.7465
X5.4406Y-4.7765
X5.4406Y-4.8065
X5.4516Y-2.611
X5.4516Y-3.5165
X5.4516Y-4.422
X5.4516Y-5.3275
X5.4686Y-2.629
X5.4686Y-3.5345
X5.4686Y-4.44
X5.4686Y-5.3455
X5.4706Y-2.03
X5.4706Y-2.06
X5.4706Y-2.09
X5.4706Y-2.12
X5.4706Y-2.9355
X5.4706Y-2.9655
X5.4706Y-2.9955
X5.4706Y-3.0255
X5.4706Y-3.841
X5.4706Y-3.871
X5.4706Y-3.901
X5.4706Y-3.931
X5.4706Y-4.7465
X5.4706Y-4.7765
X5.4706Y-4.8065
X5.4706Y-4.8365
X5.4876Y-2.589
X5.4876Y-3.4945
X5.4876Y-4.4
X5.4876Y-5.3055
X5.4886Y-2.614
X5.4886Y-3.5195
X5.4886Y-4.425
X5.4886Y-5.3305
X5.4916Y-2.381
X5.4916Y-3.2865
X5.4916Y-4.192
X5.4916Y-5.0975
X5.4956Y-2.418
X5.4956Y-3.3235
X5.4956Y-4.229
X5.4956Y-5.1345
X5.5066Y-2.633
X5.5066Y-3.5385
X5.5066Y-4.444
X5.5066Y-5.3495
X5.5106Y-2.398
X5.5106Y-3.3035
X5.5106Y-4.209
X5.5106Y-5.1145
X5.5186Y-2.429
X5.5186Y-2.609
X5.5186Y-3.3345
X5.5186Y-3.5145
X5.5186Y-4.24
X5.5186Y-4.42
X5.5186Y-5.1455
X5.5186Y-5.3255
X5.5346Y-2.775
X5.5346Y-3.6805
X5.5346Y-4.586
X5.5346Y-5.4915
X5.5386Y-2.664
X5.5386Y-2.689
X5.5386Y-3.5695
X5.5386Y-3.5945
X5.5386Y-4.475
X5.5386Y-4.5
X5.5386Y-5.3805
X5.5386Y-5.4055
X5.5406Y-2.354
X5.5406Y-3.2595
X5.5406Y-4.165
X5.5406Y-5.0705
X5.5456Y-2.391
X5.5456Y-3.2965
X5.5456Y-4.202
X5.5456Y-5.1075
X5.5571Y-2.6474
X5.5571Y-3.5529
X5.5571Y-4.4585
X5.5571Y-5.364
X5.5606Y-2.369
X5.5606Y-3.2745
X5.5606Y-4.18
X5.5606Y-5.0855
X5.5616Y-2.341
X5.5616Y-3.2465
X5.5616Y-4.152
X5.5616Y-5.0575
X5.5666Y-2.685
X5.5666Y-3.5905
X5.5666Y-4.496
X5.5666Y-5.4015
X5.5706Y-2.47
X5.5706Y-2.5
X5.5706Y-2.53
X5.5706Y-2.56
X5.5706Y-3.3755
X5.5706Y-3.4055
X5.5706Y-3.4355
X5.5706Y-3.4655
X5.5706Y-4.281
X5.5706Y-4.311
X5.5706Y-4.341
X5.5706Y-4.371
X5.5706Y-5.1865
X5.5706Y-5.2165
X5.5706Y-5.2465
X5.5706Y-5.2765
X5.5756Y-2.115
X5.5756Y-3.0205
X5.5756Y-3.926
X5.5756Y-4.8315
X5.591Y-2.653
X5.591Y-3.5585
X5.591Y-4.464
X5.591Y-5.3695
X5.6006Y-2.47
X5.6006Y-2.5
X5.6006Y-2.53
X5.6006Y-2.56
X5.6006Y-3.3755
X5.6006Y-3.4055
X5.6006Y-3.4355
X5.6006Y-3.4655
X5.6006Y-4.281
X5.6006Y-4.311
X5.6006Y-4.341
X5.6006Y-4.371
X5.6006Y-5.1865
X5.6006Y-5.2165
X5.6006Y-5.2465
X5.6006Y-5.2765
X5.6306Y-2.47
X5.6306Y-2.5
X5.6306Y-2.53
X5.6306Y-2.56
X5.6306Y-3.3755
X5.6306Y-3.4055
X5.6306Y-3.4355
X5.6306Y-3.4655
X5.6306Y-4.281
X5.6306Y-4.311
X5.6306Y-4.341
X5.6306Y-4.371
X5.6306Y-5.1865
X5.6306Y-5.2165
X5.6306Y-5.2465
X5.6306Y-5.2765
X5.6396Y-2.141
X5.6396Y-3.0465
X5.6396Y-3.952
X5.6396Y-4.8575
X5.6456Y-2.19
X5.6456Y-2.215
X5.6456Y-3.0955
X5.6456Y-3.1205
X5.6456Y-4.001
X5.6456Y-4.026
X5.6456Y-4.9065
X5.6456Y-4.9315
X5.6606Y-2.47
X5.6606Y-2.5
X5.6606Y-2.53
X5.6606Y-2.56
X5.6606Y-3.3755
X5.6606Y-3.4055
X5.6606Y-3.4355
X5.6606Y-3.4655
X5.6606Y-4.281
X5.6606Y-4.311
X5.6606Y-4.341
X5.6606Y-4.371
X5.6606Y-5.1865
X5.6606Y-5.2165
X5.6606Y-5.2465
X5.6606Y-5.2765
X5.6616Y-2.766
X5.6616Y-3.6715
X5.6616Y-4.577
X5.6616Y-5.4825
X5.6656Y-2.175
X5.6656Y-3.0805
X5.6656Y-3.986
X5.6656Y-4.8915
X5.6731Y-2.3725
X5.6731Y-3.278
X5.6731Y-4.1835
X5.6731Y-5.089
X5.6826Y-2.216
X5.6826Y-2.258
X5.6826Y-3.1215
X5.6826Y-3.1635
X5.6826Y-4.027
X5.6826Y-4.069
X5.6826Y-4.9325
X5.6826Y-4.9745
X5.6836Y-2.74
X5.6836Y-3.6455
X5.6836Y-4.551
X5.6836Y-5.4565
X5.6906Y-2.165
X5.6906Y-2.775
X5.6906Y-3.0705
X5.6906Y-3.6805
X5.6906Y-3.976
X5.6906Y-4.586
X5.6906Y-4.8815
X5.6906Y-5.4915
X5.7036Y-2.406
X5.7036Y-3.3115
X5.7036Y-4.217
X5.7036Y-5.1225
X5.7066Y-2.245
X5.7066Y-3.1505
X5.7066Y-4.056
X5.7066Y-4.9615
X5.7106Y-2.627
X5.7106Y-3.5325
X5.7106Y-4.438
X5.7106Y-5.3435
X5.7126Y-2.429
X5.7126Y-3.3345
X5.7126Y-4.24
X5.7126Y-5.1455
X5.7176Y-2.771
X5.7176Y-3.6765
X5.7176Y-4.582
X5.7176Y-5.4875
X5.744Y-2.3726
X5.744Y-3.2781
X5.744Y-4.1836
X5.744Y-5.0892
X5.7456Y-2.771
X5.7456Y-3.6765
X5.7456Y-4.582
X5.7456Y-5.4875
X5.7486Y-2.482
X5.7486Y-3.3875
X5.7486Y-4.293
X5.7486Y-5.1985
X5.7566Y-2.507
X5.7566Y-3.4125
X5.7566Y-4.318
X5.7566Y-5.2235
X6.0032Y-2.699
X6.0032Y-3.6045
X6.0032Y-4.51
X6.0032Y-5.4155
X6.0262Y-2.71
X6.0262Y-3.6155
X6.0262Y-4.521
X6.0262Y-5.4265
X6.0342Y-2.03
X6.0342Y-2.06
X6.0342Y-2.09
X6.0342Y-2.9355
X6.0342Y-2.9655
X6.0342Y-2.9955
X6.0342Y-3.841
X6.0342Y-3.871
X6.0342Y-3.901
X6.0342Y-4.7465
X6.0342Y-4.7765
X6.0342Y-4.8065
X6.0492Y-2.721
X6.0492Y-3.6265
X6.0492Y-4.532
X6.0492Y-5.4375
X6.0642Y-2.03
X6.0642Y-2.06
X6.0642Y-2.09
X6.0642Y-2.9355
X6.0642Y-2.9655
X6.0642Y-2.9955
X6.0642Y-3.841
X6.0642Y-3.871
X6.0642Y-3.901
X6.0642Y-4.7465
X6.0642Y-4.7765
X6.0642Y-4.8065
X6.0802Y-2.721
X6.0802Y-3.6265
X6.0802Y-4.532
X6.0802Y-5.4375
X6.0942Y-2.03
X6.0942Y-2.06
X6.0942Y-2.09
X6.0942Y-2.9355
X6.0942Y-2.9655
X6.0942Y-2.9955
X6.0942Y-3.841
X6.0942Y-3.871
X6.0942Y-3.901
X6.0942Y-4.7465
X6.0942Y-4.7765
X6.0942Y-4.8065
X6.1052Y-2.611
X6.1052Y-3.5165
X6.1052Y-4.422
X6.1052Y-5.3275
X6.1222Y-2.629
X6.1222Y-3.5345
X6.1222Y-4.44
X6.1222Y-5.3455
X6.1242Y-2.03
X6.1242Y-2.06
X6.1242Y-2.09
X6.1242Y-2.12
X6.1242Y-2.9355
X6.1242Y-2.9655
X6.1242Y-2.9955
X6.1242Y-3.0255
X6.1242Y-3.841
X6.1242Y-3.871
X6.1242Y-3.901
X6.1242Y-3.931
X6.1242Y-4.7465
X6.1242Y-4.7765
X6.1242Y-4.8065
X6.1242Y-4.8365
X6.1412Y-2.589
X6.1412Y-3.4945
X6.1412Y-4.4
X6.1412Y-5.3055
X6.1422Y-2.614
X6.1422Y-3.5195
X6.1422Y-4.425
X6.1422Y-5.3305
X6.1452Y-2.381
X6.1452Y-3.2865
X6.1452Y-4.192
X6.1452Y-5.0975
X6.1492Y-2.418
X6.1492Y-3.3235
X6.1492Y-4.229
X6.1492Y-5.1345
X6.1602Y-2.633
X6.1602Y-3.5385
X6.1602Y-4.444
X6.1602Y-5.3495
X6.1642Y-2.398
X6.1642Y-3.3035
X6.1642Y-4.209
X6.1642Y-5.1145
X6.1722Y-2.429
X6.1722Y-2.609
X6.1722Y-3.3345
X6.1722Y-3.5145
X6.1722Y-4.24
X6.1722Y-4.42
X6.1722Y-5.1455
X6.1722Y-5.3255
X6.1882Y-2.775
X6.1882Y-3.6805
X6.1882Y-4.586
X6.1882Y-5.4915
X6.1922Y-2.664
X6.1922Y-2.689
X6.1922Y-3.5695
X6.1922Y-3.5945
X6.1922Y-4.475
X6.1922Y-4.5
X6.1922Y-5.3805
X6.1922Y-5.4055
X6.1942Y-2.354
X6.1942Y-3.2595
X6.1942Y-4.165
X6.1942Y-5.0705
X6.1992Y-2.391
X6.1992Y-3.2965
X6.1992Y-4.202
X6.1992Y-5.1075
X6.2107Y-2.6474
X6.2107Y-3.5529
X6.2107Y-4.4585
X6.2107Y-5.364
X6.2142Y-2.369
X6.2142Y-3.2745
X6.2142Y-4.18
X6.2142Y-5.0855
X6.2152Y-2.341
X6.2152Y-3.2465
X6.2152Y-4.152
X6.2152Y-5.0575
X6.2202Y-2.685
X6.2202Y-3.5905
X6.2202Y-4.496
X6.2202Y-5.4015
X6.2242Y-2.47
X6.2242Y-2.5
X6.2242Y-2.53
X6.2242Y-2.56
X6.2242Y-3.3755
X6.2242Y-3.4055
X6.2242Y-3.4355
X6.2242Y-3.4655
X6.2242Y-4.281
X6.2242Y-4.311
X6.2242Y-4.341
X6.2242Y-4.371
X6.2242Y-5.1865
X6.2242Y-5.2165
X6.2242Y-5.2465
X6.2242Y-5.2765
X6.2292Y-2.115
X6.2292Y-3.0205
X6.2292Y-3.926
X6.2292Y-4.8315
X6.2446Y-2.653
X6.2446Y-3.5585
X6.2446Y-4.464
X6.2446Y-5.3695
X6.2542Y-2.47
X6.2542Y-2.5
X6.2542Y-2.53
X6.2542Y-2.56
X6.2542Y-3.3755
X6.2542Y-3.4055
X6.2542Y-3.4355
X6.2542Y-3.4655
X6.2542Y-4.281
X6.2542Y-4.311
X6.2542Y-4.341
X6.2542Y-4.371
X6.2542Y-5.1865
X6.2542Y-5.2165
X6.2542Y-5.2465
X6.2542Y-5.2765
X6.2842Y-2.47
X6.2842Y-2.5
X6.2842Y-2.53
X6.2842Y-2.56
X6.2842Y-3.3755
X6.2842Y-3.4055
X6.2842Y-3.4355
X6.2842Y-3.4655
X6.2842Y-4.281
X6.2842Y-4.311
X6.2842Y-4.341
X6.2842Y-4.371
X6.2842Y-5.1865
X6.2842Y-5.2165
X6.2842Y-5.2465
X6.2842Y-5.2765
X6.2932Y-2.141
X6.2932Y-3.0465
X6.2932Y-3.952
X6.2932Y-4.8575
X6.2992Y-2.19
X6.2992Y-2.215
X6.2992Y-3.0955
X6.2992Y-3.1205
X6.2992Y-4.001
X6.2992Y-4.026
X6.2992Y-4.9065
X6.2992Y-4.9315
X6.3142Y-2.47
X6.3142Y-2.5
X6.3142Y-2.53
X6.3142Y-2.56
X6.3142Y-3.3755
X6.3142Y-3.4055
X6.3142Y-3.4355
X6.3142Y-3.4655
X6.3142Y-4.281
X6.3142Y-4.311
X6.3142Y-4.341
X6.3142Y-4.371
X6.3142Y-5.1865
X6.3142Y-5.2165
X6.3142Y-5.2465
X6.3142Y-5.2765
X6.3152Y-2.766
X6.3152Y-3.6715
X6.3152Y-4.577
X6.3152Y-5.4825
X6.3192Y-2.175
X6.3192Y-3.0805
X6.3192Y-3.986
X6.3192Y-4.8915
X6.3267Y-2.3725
X6.3267Y-3.278
X6.3267Y-4.1835
X6.3267Y-5.089
X6.3362Y-2.216
X6.3362Y-2.258
X6.3362Y-3.1215
X6.3362Y-3.1635
X6.3362Y-4.027
X6.3362Y-4.069
X6.3362Y-4.9325
X6.3362Y-4.9745
X6.3372Y-2.74
X6.3372Y-3.6455
X6.3372Y-4.551
X6.3372Y-5.4565
X6.3442Y-2.165
X6.3442Y-2.775
X6.3442Y-3.0705
X6.3442Y-3.6805
X6.3442Y-3.976
X6.3442Y-4.586
X6.3442Y-4.8815
X6.3442Y-5.4915
X6.3572Y-2.406
X6.3572Y-3.3115
X6.3572Y-4.217
X6.3572Y-5.1225
X6.3602Y-2.245
X6.3602Y-3.1505
X6.3602Y-4.056
X6.3602Y-4.9615
X6.3642Y-2.627
X6.3642Y-3.5325
X6.3642Y-4.438
X6.3642Y-5.3435
X6.3662Y-2.429
X6.3662Y-3.3345
X6.3662Y-4.24
X6.3662Y-5.1455
X6.3712Y-2.771
X6.3712Y-3.6765
X6.3712Y-4.582
X6.3712Y-5.4875
X6.3976Y-2.3726
X6.3976Y-3.2781
X6.3976Y-4.1836
X6.3976Y-5.0892
X6.3992Y-2.771
X6.3992Y-3.6765
X6.3992Y-4.582
X6.3992Y-5.4875
X6.4022Y-2.482
X6.4022Y-3.3875
X6.4022Y-4.293
X6.4022Y-5.1985
X6.4102Y-2.507
X6.4102Y-3.4125
X6.4102Y-4.318
X6.4102Y-5.2235
X6.6567Y-2.699
X6.6567Y-3.6045
X6.6567Y-4.51
X6.6567Y-5.4155
X6.6797Y-2.71
X6.6797Y-3.6155
X6.6797Y-4.521
X6.6797Y-5.4265
X6.6877Y-2.03
X6.6877Y-2.06
X6.6877Y-2.09
X6.6877Y-2.9355
X6.6877Y-2.9655
X6.6877Y-2.9955
X6.6877Y-3.841
X6.6877Y-3.871
X6.6877Y-3.901
X6.6877Y-4.7465
X6.6877Y-4.7765
X6.6877Y-4.8065
X6.7027Y-2.721
X6.7027Y-3.6265
X6.7027Y-4.532
X6.7027Y-5.4375
X6.7177Y-2.03
X6.7177Y-2.06
X6.7177Y-2.09
X6.7177Y-2.9355
X6.7177Y-2.9655
X6.7177Y-2.9955
X6.7177Y-3.841
X6.7177Y-3.871
X6.7177Y-3.901
X6.7177Y-4.7465
X6.7177Y-4.7765
X6.7177Y-4.8065
X6.7337Y-2.721
X6.7337Y-3.6265
X6.7337Y-4.532
X6.7337Y-5.4375
X6.7477Y-2.03
X6.7477Y-2.06
X6.7477Y-2.09
X6.7477Y-2.9355
X6.7477Y-2.9655
X6.7477Y-2.9955
X6.7477Y-3.841
X6.7477Y-3.871
X6.7477Y-3.901
X6.7477Y-4.7465
X6.7477Y-4.7765
X6.7477Y-4.8065
X6.7587Y-2.611
X6.7587Y-3.5165
X6.7587Y-4.422
X6.7587Y-5.3275
X6.7757Y-2.629
X6.7757Y-3.5345
X6.7757Y-4.44
X6.7757Y-5.3455
X6.7777Y-2.03
X6.7777Y-2.06
X6.7777Y-2.09
X6.7777Y-2.12
X6.7777Y-2.9355
X6.7777Y-2.9655
X6.7777Y-2.9955
X6.7777Y-3.0255
X6.7777Y-3.841
X6.7777Y-3.871
X6.7777Y-3.901
X6.7777Y-3.931
X6.7777Y-4.7465
X6.7777Y-4.7765
X6.7777Y-4.8065
X6.7777Y-4.8365
X6.7947Y-2.589
X6.7947Y-3.4945
X6.7947Y-4.4
X6.7947Y-5.3055
X6.7957Y-2.614
X6.7957Y-3.5195
X6.7957Y-4.425
X6.7957Y-5.3305
X6.7987Y-2.381
X6.7987Y-3.2865
X6.7987Y-4.192
X6.7987Y-5.0975
X6.8027Y-2.418
X6.8027Y-3.3235
X6.8027Y-4.229
X6.8027Y-5.1345
X6.8137Y-2.633
X6.8137Y-3.5385
X6.8137Y-4.444
X6.8137Y-5.3495
X6.8177Y-2.398
X6.8177Y-3.3035
X6.8177Y-4.209
X6.8177Y-5.1145
X6.8257Y-2.429
X6.8257Y-2.609
X6.8257Y-3.3345
X6.8257Y-3.5145
X6.8257Y-4.24
X6.8257Y-4.42
X6.8257Y-5.1455
X6.8257Y-5.3255
X6.8417Y-2.775
X6.8417Y-3.6805
X6.8417Y-4.586
X6.8417Y-5.4915
X6.8457Y-2.664
X6.8457Y-2.689
X6.8457Y-3.5695
X6.8457Y-3.5945
X6.8457Y-4.475
X6.8457Y-4.5
X6.8457Y-5.3805
X6.8457Y-5.4055
X6.8477Y-2.354
X6.8477Y-3.2595
X6.8477Y-4.165
X6.8477Y-5.0705
X6.8527Y-2.391
X6.8527Y-3.2965
X6.8527Y-4.202
X6.8527Y-5.1075
X6.8642Y-2.6474
X6.8642Y-3.5529
X6.8642Y-4.4585
X6.8642Y-5.364
X6.8677Y-2.369
X6.8677Y-3.2745
X6.8677Y-4.18
X6.8677Y-5.0855
X6.8687Y-2.341
X6.8687Y-3.2465
X6.8687Y-4.152
X6.8687Y-5.0575
X6.8737Y-2.685
X6.8737Y-3.5905
X6.8737Y-4.496
X6.8737Y-5.4015
X6.8777Y-2.47
X6.8777Y-2.5
X6.8777Y-2.53
X6.8777Y-2.56
X6.8777Y-3.3755
X6.8777Y-3.4055
X6.8777Y-3.4355
X6.8777Y-3.4655
X6.8777Y-4.281
X6.8777Y-4.311
X6.8777Y-4.341
X6.8777Y-4.371
X6.8777Y-5.1865
X6.8777Y-5.2165
X6.8777Y-5.2465
X6.8777Y-5.2765
X6.8827Y-2.115
X6.8827Y-3.0205
X6.8827Y-3.926
X6.8827Y-4.8315
X6.8981Y-2.653
X6.8981Y-3.5585
X6.8981Y-4.464
X6.8981Y-5.3695
X6.9077Y-2.47
X6.9077Y-2.5
X6.9077Y-2.53
X6.9077Y-2.56
X6.9077Y-3.3755
X6.9077Y-3.4055
X6.9077Y-3.4355
X6.9077Y-3.4655
X6.9077Y-4.281
X6.9077Y-4.311
X6.9077Y-4.341
X6.9077Y-4.371
X6.9077Y-5.1865
X6.9077Y-5.2165
X6.9077Y-5.2465
X6.9077Y-5.2765
X6.9377Y-2.47
X6.9377Y-2.5
X6.9377Y-2.53
X6.9377Y-2.56
X6.9377Y-3.3755
X6.9377Y-3.4055
X6.9377Y-3.4355
X6.9377Y-3.4655
X6.9377Y-4.281
X6.9377Y-4.311
X6.9377Y-4.341
X6.9377Y-4.371
X6.9377Y-5.1865
X6.9377Y-5.2165
X6.9377Y-5.2465
X6.9377Y-5.2765
X6.9467Y-2.141
X6.9467Y-3.0465
X6.9467Y-3.952
X6.9467Y-4.8575
X6.9527Y-2.19
X6.9527Y-2.215
X6.9527Y-3.0955
X6.9527Y-3.1205
X6.9527Y-4.001
X6.9527Y-4.026
X6.9527Y-4.9065
X6.9527Y-4.9315
X6.9677Y-2.47
X6.9677Y-2.5
X6.9677Y-2.53
X6.9677Y-2.56
X6.9677Y-3.3755
X6.9677Y-3.4055
X6.9677Y-3.4355
X6.9677Y-3.4655
X6.9677Y-4.281
X6.9677Y-4.311
X6.9677Y-4.341
X6.9677Y-4.371
X6.9677Y-5.1865
X6.9677Y-5.2165
X6.9677Y-5.2465
X6.9677Y-5.2765
X6.9687Y-2.766
X6.9687Y-3.6715
X6.9687Y-4.577
X6.9687Y-5.4825
X6.9727Y-2.175
X6.9727Y-3.0805
X6.9727Y-3.986
X6.9727Y-4.8915
X6.9802Y-2.3725
X6.9802Y-3.278
X6.9802Y-4.1835
X6.9802Y-5.089
X6.9897Y-2.216
X6.9897Y-2.258
X6.9897Y-3.1215
X6.9897Y-3.1635
X6.9897Y-4.027
X6.9897Y-4.069
X6.9897Y-4.9325
X6.9897Y-4.9745
X6.9907Y-2.74
X6.9907Y-3.6455
X6.9907Y-4.551
X6.9907Y-5.4565
X6.9977Y-2.165
X6.9977Y-2.775
X6.9977Y-3.0705
X6.9977Y-3.6805
X6.9977Y-3.976
X6.9977Y-4.586
X6.9977Y-4.8815
X6.9977Y-5.4915
X7.0107Y-2.406
X7.0107Y-3.3115
X7.0107Y-4.217
X7.0107Y-5.1225
X7.0137Y-2.245
X7.0137Y-3.1505
X7.0137Y-4.056
X7.0137Y-4.9615
X7.0177Y-2.627
X7.0177Y-3.5325
X7.0177Y-4.438
X7.0177Y-5.3435
X7.0197Y-2.429
X7.0197Y-3.3345
X7.0197Y-4.24
X7.0197Y-5.1455
X7.0247Y-2.771
X7.0247Y-3.6765
X7.0247Y-4.582
X7.0247Y-5.4875
X7.0511Y-2.3726
X7.0511Y-3.2781
X7.0511Y-4.1836
X7.0511Y-5.0892
X7.0527Y-2.771
X7.0527Y-3.6765
X7.0527Y-4.582
X7.0527Y-5.4875
X7.0557Y-2.482
X7.0557Y-3.3875
X7.0557Y-4.293
X7.0557Y-5.1985
X7.0637Y-2.507
X7.0637Y-3.4125
X7.0637Y-4.318
X7.0637Y-5.2235
T2
X3.35Y-2.05
X3.35Y-2.15
X3.35Y-2.25
X3.35Y-2.35
X3.35Y-2.45
X3.35Y-2.55
X3.35Y-2.65
X3.35Y-2.75
X3.35Y-2.9555
X3.35Y-3.0555
X3.35Y-3.1555
X3.35Y-3.2555
X3.35Y-3.3555
X3.35Y-3.4555
X3.35Y-3.5555
X3.35Y-3.6555
X3.35Y-3.861
X3.35Y-3.961
X3.35Y-4.061
X3.35Y-4.161
X3.35Y-4.261
X3.35Y-4.361
X3.35Y-4.461
X3.35Y-4.561
X3.35Y-4.7665
X3.35Y-4.8665
X3.35Y-4.9665
X3.35Y-5.0665
X3.35Y-5.1665
X3.35Y-5.2665
X3.35Y-5.3665
X3.35Y-5.4665
X3.85Y-2.05
X3.85Y-2.15
X3.85Y-2.25
X3.85Y-2.35
X3.85Y-2.45
X3.85Y-2.55
X3.85Y-2.65
X3.85Y-2.75
X3.85Y-2.9555
X3.85Y-3.0555
X3.85Y-3.1555
X3.85Y-3.2555
X3.85Y-3.3555
X3.85Y-3.4555
X3.85Y-3.5555
X3.85Y-3.6555
X3.85Y-3.861
X3.85Y-3.961
X3.85Y-4.061
X3.85Y-4.161
X3.85Y-4.261
X3.85Y-4.361
X3.85Y-4.461
X3.85Y-4.561
X3.85Y-4.7665
X3.85Y-4.8665
X3.85Y-4.9665
X3.85Y-5.0665
X3.85Y-5.1665
X3.85Y-5.2665
X3.85Y-5.3665
X3.85Y-5.4665
X4.0035Y-2.05
X4.0035Y-2.15
X4.0035Y-2.25
X4.0035Y-2.35
X4.0035Y-2.45
X4.0035Y-2.55
X4.0035Y-2.65
X4.0035Y-2.75
X4.0035Y-2.9555
X4.0035Y-3.0555
X4.0035Y-3.1555
X4.0035Y-3.2555
X4.0035Y-3.3555
X4.0035Y-3.4555
X4.0035Y-3.5555
X4.0035Y-3.6555
X4.0035Y-3.861
X4.0035Y-3.961
X4.0035Y-4.061
X4.0035Y-4.161
X4.0035Y-4.261
X4.0035Y-4.361
X4.0035Y-4.461
X4.0035Y-4.561
X4.0035Y-4.7665
X4.0035Y-4.8665
X4.0035Y-4.9665
X4.0035Y-5.0665
X4.0035Y-5.1665
X4.0035Y-5.2665
X4.0035Y-5.3665
X4.0035Y-5.4665
X4.5035Y-2.05
X4.5035Y-2.15
X4.5035Y-2.25
X4.5035Y-2.35
X4.5035Y-2.45
X4.5035Y-2.55
X4.5035Y-2.65
X4.5035Y-2.75
X4.5035Y-2.9555
X4.5035Y-3.0555
X4.5035Y-3.1555
X4.5035Y-3.2555
X4.5035Y-3.3555
X4.5035Y-3.4555
X4.5035Y-3.5555
X4.5035Y-3.6555
X4.5035Y-3.861
X4.5035Y-3.961
X4.5035Y-4.061
X4.5035Y-4.161
X4.5035Y-4.261
X4.5035Y-4.361
X4.5035Y-4.461
X4.5035Y-4.561
X4.5035Y-4.7665
X4.5035Y-4.8665
X4.5035Y-4.9665
X4.5035Y-5.0665
X4.5035Y-5.1665
X4.5035Y-5.2665
X4.5035Y-5.3665
X4.5035Y-5.4665
X4.6571Y-2.05
X4.6571Y-2.15
X4.6571Y-2.25
X4.6571Y-2.35
X4.6571Y-2.45
X4.6571Y-2.55
X4.6571Y-2.65
X4.6571Y-2.75
X4.6571Y-2.9555
X4.6571Y-3.0555
X4.6571Y-3.1555
X4.6571Y-3.2555
X4.6571Y-3.3555
X4.6571Y-3.4555
X4.6571Y-3.5555
X4.6571Y-3.6555
X4.6571Y-3.861
X4.6571Y-3.961
X4.6571Y-4.061
X4.6571Y-4.161
X4.6571Y-4.261
X4.6571Y-4.361
X4.6571Y-4.461
X4.6571Y-4.561
X4.6571Y-4.7665
X4.6571Y-4.8665
X4.6571Y-4.9665
X4.6571Y-5.0665
X4.6571Y-5.1665
X4.6571Y-5.2665
X4.6571Y-5.3665
X4.6571Y-5.4665
X5.1571Y-2.05
X5.1571Y-2.15
X5.1571Y-2.25
X5.1571Y-2.35
X5.1571Y-2.45
X5.1571Y-2.55
X5.1571Y-2.65
X5.1571Y-2.75
X5.1571Y-2.9555
X5.1571Y-3.0555
X5.1571Y-3.1555
X5.1571Y-3.2555
X5.1571Y-3.3555
X5.1571Y-3.4555
X5.1571Y-3.5555
X5.1571Y-3.6555
X5.1571Y-3.861
X5.1571Y-3.961
X5.1571Y-4.061
X5.1571Y-4.161
X5.1571Y-4.261
X5.1571Y-4.361
X5.1571Y-4.461
X5.1571Y-4.561
X5.1571Y-4.7665
X5.1571Y-4.8665
X5.1571Y-4.9665
X5.1571Y-5.0665
X5.1571Y-5.1665
X5.1571Y-5.2665
X5.1571Y-5.3665
X5.1571Y-5.4665
X5.3106Y-2.05
X5.3106Y-2.15
X5.3106Y-2.25
X5.3106Y-2.35
X5.3106Y-2.45
X5.3106Y-2.55
X5.3106Y-2.65
X5.3106Y-2.75
X5.3106Y-2.9555
X5.3106Y-3.0555
X5.3106Y-3.1555
X5.3106Y-3.2555
X5.3106Y-3.3555
X5.3106Y-3.4555
X5.3106Y-3.5555
X5.3106Y-3.6555
X5.3106Y-3.861
X5.3106Y-3.961
X5.3106Y-4.061
X5.3106Y-4.161
X5.3106Y-4.261
X5.3106Y-4.361
X5.3106Y-4.461
X5.3106Y-4.561
X5.3106Y-4.7665
X5.3106Y-4.8665
X5.3106Y-4.9665
X5.3106Y-5.0665
X5.3106Y-5.1665
X5.3106Y-5.2665
X5.3106Y-5.3665
X5.3106Y-5.4665
X5.8106Y-2.05
X5.8106Y-2.15
X5.8106Y-2.25
X5.8106Y-2.35
X5.8106Y-2.45
X5.8106Y-2.55
X5.8106Y-2.65
X5.8106Y-2.75
X5.8106Y-2.9555
X5.8106Y-3.0555
X5.8106Y-3.1555
X5.8106Y-3.2555
X5.8106Y-3.3555
X5.8106Y-3.4555
X5.8106Y-3.5555
X5.8106Y-3.6555
X5.8106Y-3.861
X5.8106Y-3.961
X5.8106Y-4.061
X5.8106Y-4.161
X5.8106Y-4.261
X5.8106Y-4.361
X5.8106Y-4.461
X5.8106Y-4.561
X5.8106Y-4.7665
X5.8106Y-4.8665
X5.8106Y-4.9665
X5.8106Y-5.0665
X5.8106Y-5.1665
X5.8106Y-5.2665
X5.8106Y-5.3665
X5.8106Y-5.4665
X5.9642Y-2.05
X5.9642Y-2.15
X5.9642Y-2.25
X5.9642Y-2.35
X5.9642Y-2.45
X5.9642Y-2.55
X5.9642Y-2.65
X5.9642Y-2.75
X5.9642Y-2.9555
X5.9642Y-3.0555
X5.9642Y-3.1555
X5.9642Y-3.2555
X5.9642Y-3.3555
X5.9642Y-3.4555
X5.9642Y-3.5555
X5.9642Y-3.6555
X5.9642Y-3.861
X5.9642Y-3.961
X5.9642Y-4.061
X5.9642Y-4.161
X5.9642Y-4.261
X5.9642Y-4.361
X5.9642Y-4.461
X5.9642Y-4.561
X5.9642Y-4.7665
X5.9642Y-4.8665
X5.9642Y-4.9665
X5.9642Y-5.0665
X5.9642Y-5.1665
X5.9642Y-5.2665
X5.9642Y-5.3665
X5.9642Y-5.4665
X6.4642Y-2.05
X6.4642Y-2.15
X6.4642Y-2.25
X6.4642Y-2.35
X6.4642Y-2.45
X6.4642Y-2.55
X6.4642Y-2.65
X6.4642Y-2.75
X6.4642Y-2.9555
X6.4642Y-3.0555
X6.4642Y-3.1555
X6.4642Y-3.2555
X6.4642Y-3.3555
X6.4642Y-3.4555
X6.4642Y-3.5555
X6.4642Y-3.6555
X6.4642Y-3.861
X6.4642Y-3.961
X6.4642Y-4.061
X6.4642Y-4.161
X6.4642Y-4.261
X6.4642Y-4.361
X6.4642Y-4.461
X6.4642Y-4.561
X6.4642Y-4.7665
X6.4642Y-4.8665
X6.4642Y-4.9665
X6.4642Y-5.0665
X6.4642Y-5.1665
X6.4642Y-5.2665
X6.4642Y-5.3665
X6.4642Y-5.4665
X6.6177Y-2.05
X6.6177Y-2.15
X6.6177Y-2.25
X6.6177Y-2.35
X6.6177Y-2.45
X6.6177Y-2.55
X6.6177Y-2.65
X6.6177Y-2.75
X6.6177Y-2.9555
X6.6177Y-3.0555
X6.6177Y-3.1555
X6.6177Y-3.2555
X6.6177Y-3.3555
X6.6177Y-3.4555
X6.6177Y-3.5555
X6.6177Y-3.6555
X6.6177Y-3.861
X6.6177Y-3.961
X6.6177Y-4.061
X6.6177Y-4.161
X6.6177Y-4.261
X6.6177Y-4.361
X6.6177Y-4.461
X6.6177Y-4.561
X6.6177Y-4.7665
X6.6177Y-4.8665
X6.6177Y-4.9665
X6.6177Y-5.0665
X6.6177Y-5.1665
X6.6177Y-5.2665
X6.6177Y-5.3665
X6.6177Y-5.4665
X7.1177Y-2.05
X7.1177Y-2.15
X7.1177Y-2.25
X7.1177Y-2.35
X7.1177Y-2.45
X7.1177Y-2.55
X7.1177Y-2.65
X7.1177Y-2.75
X7.1177Y-2.9555
X7.1177Y-3.0555
X7.1177Y-3.1555
X7.1177Y-3.2555
X7.1177Y-3.3555
X7.1177Y-3.4555
X7.1177Y-3.5555
X7.1177Y-3.6555
X7.1177Y-3.861
X7.1177Y-3.961
X7.1177Y-4.061
X7.1177Y-4.161
X7.1177Y-4.261
X7.1177Y-4.361
X7.1177Y-4.461
X7.1177Y-4.561
X7.1177Y-4.7665
X7.1177Y-4.8665
X7.1177Y-4.9665
X7.1177Y-5.0665
X7.1177Y-5.1665
X7.1177Y-5.2665
X7.1177Y-5.3665
X7.1177Y-5.4665
T0
M30
